<svg width="20" height="20" viewBox="0 0 20 20" fill="none" xmlns="http://www.w3.org/2000/svg">
<path d="M16.0167 10C16.0167 10.359 16.3077 10.65 16.6667 10.65C17.0257 10.65 17.3167 10.359 17.3167 10H16.0167ZM9.16667 2.5L9.18375 1.85022C8.9186 1.84326 8.67582 1.99809 8.57031 2.24143C8.4648 2.48478 8.51773 2.76783 8.70405 2.9566L9.16667 2.5ZM2.5 14.1667L2.62957 13.5297C2.37032 13.477 2.10497 13.5866 1.95857 13.807C1.81218 14.0274 1.81397 14.3145 1.96308 14.533L2.5 14.1667ZM15.5049 15.1729C15.731 14.894 15.6882 14.4847 15.4093 14.2586C15.1304 14.0326 14.7211 14.0754 14.4951 14.3542L15.5049 15.1729ZM17.3167 10C17.3167 5.55724 13.6863 1.96857 9.18375 1.85022L9.14959 3.14978C12.9815 3.2505 16.0167 6.29525 16.0167 10H17.3167ZM1.96308 14.533C3.47862 16.7541 6.28255 18.15 9.16667 18.15V16.85C6.66929 16.85 4.28701 15.6324 3.03692 13.8003L1.96308 14.533ZM2.37043 14.8036C6.00015 15.542 9.11047 13.6508 10.6576 10.9624C12.2068 8.2703 12.238 4.68646 9.62928 2.0434L8.70405 2.9566C10.8311 5.11166 10.8422 8.03517 9.53087 10.3139C8.21743 12.5963 5.62654 14.1394 2.62957 13.5297L2.37043 14.8036ZM9.16667 18.15C11.7688 18.15 14.0289 16.9937 15.5049 15.1729L14.4951 14.3542C13.2619 15.8755 11.3706 16.85 9.16667 16.85V18.15Z" fill="#71717A"/>
</svg>
