<svg width="20" height="20" viewBox="0 0 20 20" fill="none" xmlns="http://www.w3.org/2000/svg">
<path d="M2.5 9.35C2.14101 9.35 1.85 9.64101 1.85 10C1.85 10.359 2.14101 10.65 2.5 10.65V9.35ZM4.16667 10.65C4.52565 10.65 4.81667 10.359 4.81667 10C4.81667 9.64101 4.52565 9.35 4.16667 9.35V10.65ZM3.7071 15.3737C3.45326 15.6276 3.45326 16.0391 3.7071 16.293C3.96094 16.5468 4.3725 16.5468 4.62634 16.293L3.7071 15.3737ZM6.293 14.6263C6.54684 14.3724 6.54684 13.9609 6.293 13.707C6.03916 13.4532 5.62761 13.4532 5.37376 13.707L6.293 14.6263ZM10.65 15.8333C10.65 15.4743 10.359 15.1833 10 15.1833C9.64101 15.1833 9.35 15.4743 9.35 15.8333H10.65ZM9.35 17.5C9.35 17.859 9.64101 18.15 10 18.15C10.359 18.15 10.65 17.859 10.65 17.5H9.35ZM14.6263 13.707C14.3724 13.4532 13.9609 13.4532 13.707 13.707C13.4532 13.9609 13.4532 14.3724 13.707 14.6263L14.6263 13.707ZM15.3737 16.293C15.6276 16.5468 16.0391 16.5468 16.293 16.293C16.5468 16.0391 16.5468 15.6276 16.293 15.3737L15.3737 16.293ZM4.62629 3.70705C4.37245 3.45321 3.96089 3.45321 3.70705 3.70705C3.45321 3.96089 3.45321 4.37245 3.70705 4.62629L4.62629 3.70705ZM5.37371 6.29295C5.62755 6.54679 6.03911 6.54679 6.29295 6.29295C6.54679 6.03911 6.54679 5.62755 6.29295 5.37371L5.37371 6.29295ZM15.8333 9.35C15.4743 9.35 15.1833 9.64101 15.1833 10C15.1833 10.359 15.4743 10.65 15.8333 10.65V9.35ZM17.5 10.65C17.859 10.65 18.15 10.359 18.15 10C18.15 9.64101 17.859 9.35 17.5 9.35V10.65ZM13.707 5.37371C13.4532 5.62755 13.4532 6.03911 13.707 6.29295C13.9608 6.54679 14.3724 6.54679 14.6262 6.29295L13.707 5.37371ZM16.2929 4.62629C16.5467 4.37245 16.5467 3.96089 16.2929 3.70705C16.0391 3.45321 15.6275 3.45321 15.3737 3.70705L16.2929 4.62629ZM10.65 2.5C10.65 2.14101 10.359 1.85 10 1.85C9.64101 1.85 9.35 2.14101 9.35 2.5H10.65ZM9.35 4.16667C9.35 4.52565 9.64101 4.81667 10 4.81667C10.359 4.81667 10.65 4.52565 10.65 4.16667H9.35ZM11.85 10C11.85 11.0217 11.0217 11.85 10 11.85V13.15C11.7397 13.15 13.15 11.7397 13.15 10H11.85ZM10 11.85C8.97827 11.85 8.15 11.0217 8.15 10H6.85C6.85 11.7397 8.2603 13.15 10 13.15V11.85ZM8.15 10C8.15 8.97827 8.97827 8.15 10 8.15V6.85C8.2603 6.85 6.85 8.2603 6.85 10H8.15ZM10 8.15C11.0217 8.15 11.85 8.97827 11.85 10H13.15C13.15 8.2603 11.7397 6.85 10 6.85V8.15ZM2.5 10.65H4.16667V9.35H2.5V10.65ZM4.62634 16.293L6.293 14.6263L5.37376 13.707L3.7071 15.3737L4.62634 16.293ZM9.35 15.8333V17.5H10.65V15.8333H9.35ZM13.707 14.6263L15.3737 16.293L16.293 15.3737L14.6263 13.707L13.707 14.6263ZM3.70705 4.62629L5.37371 6.29295L6.29295 5.37371L4.62629 3.70705L3.70705 4.62629ZM15.8333 10.65H17.5V9.35H15.8333V10.65ZM14.6262 6.29295L16.2929 4.62629L15.3737 3.70705L13.707 5.37371L14.6262 6.29295ZM9.35 2.5V4.16667H10.65V2.5H9.35Z" fill="#71717A"/>
</svg>
